<?xml version="1.0" encoding="UTF-8"?>
<!DOCTYPE svg PUBLIC "-//W3C//DTD SVG 1.1//EN" "http://www.w3.org/Graphics/SVG/1.1/DTD/svg11.dtd">
<!-- Creator: CorelDRAW 2018 (64 Bit Versão de avaliação) -->
<svg xmlns="http://www.w3.org/2000/svg" xml:space="preserve" width="500px" height="209px" version="1.1" style="shape-rendering:geometricPrecision; text-rendering:geometricPrecision; image-rendering:optimizeQuality; fill-rule:evenodd; clip-rule:evenodd"
viewBox="0 0 268.19 112.19"
 xmlns:xlink="http://www.w3.org/1999/xlink">
 <defs>
  <style type="text/css">
   <![CDATA[
    .fil0 {fill:white}
   ]]>
  </style>
 </defs>
 <g id="Camada_x0020_1">
  <metadata id="CorelCorpID_0Corel-Layer"/>
  <path class="fil0" d="M133.94 2.29c15.48,-9.1 31.48,12.77 48.35,0l0 42.64c-1.77,26.55 -25.73,43.15 -48.35,49.17 -22.62,-6.02 -46.58,-22.62 -48.34,-49.17l0 -42.64c16.86,12.77 32.86,-9.1 48.34,0zm-121 99.62c1.91,-2.54 8.97,-7.57 22.54,-9.42 -3.48,-2.35 -9.92,-2.74 -15.91,-2.3 0.93,0.43 1.7,0.97 2.14,1.72 -5.31,0.44 -11.5,3.09 -15.06,6.14l3.39 1.03c-4.93,4.09 -9.36,8.32 -10.04,13.11 4.55,-0.76 8.6,-2.17 11.9,-4.59 0.11,0.89 -0.06,2.04 -0.5,3.41 3.64,-1.06 6.77,-2.95 9.22,-5.89 -0.3,1.29 -0.13,2.85 0.23,4.09 8.84,-12.26 18.34,-16.3 33.84,-7.04l0.96 0.26c2.1,2.53 5.08,4.58 9.15,5.92 10.09,2.26 16.91,0.77 24.5,-7.41 1.68,-1.43 6.27,-0.54 7.69,0.02 -0.28,-0.8 -1.44,-1.59 -1.72,-2.53 2.64,0.4 6.05,0.74 8.4,0.08 -1.07,-2.76 -6.59,-5.91 -7.09,-5.14 -1.43,1.78 -2.91,3.25 -4.96,3.92 2.68,-4.15 4.96,-10.7 3.59,-19.12l0.07 -1.04c-0.22,-0.69 -0.46,-1.36 -0.71,-2l-0.01 -0.01 0 0c-5.6,-14.26 -18.12,-17.42 -31.76,-20.85 2.92,-0.63 15.15,0.7 24.84,8.34 -1.19,-4.35 -9.89,-10.69 -14.47,-12.6l0.79 3.13c-5.27,-2.23 -19.58,-3.07 -23.64,1.7 3.69,2.25 7.44,3.74 11.28,4.03 -0.47,0.71 -1.29,1.42 -2.46,2.13 3.24,1.48 9.35,2.52 12.9,1.94 -1.02,0.73 -1.85,1.95 -2.36,3.05 11.65,-3.54 17.49,-2.54 22.49,10.02 2.76,13.6 -1.2,20.84 -7.1,25.5 -2.54,1.25 -5.8,0.95 -8.46,0.19 -0.1,2.19 1.52,3.49 3.16,4.01 -15.61,3.04 -28.94,-3.61 -25.83,-21.16 4.04,-10.67 20.42,-13.48 23.8,-0.68 1.48,10.22 -7.94,12.04 -11.77,9.76 -4.18,-2.72 -3.07,-10.47 3.3,-6.97 -0.23,-1.11 -0.99,-1.85 -2.13,-2.55 2.69,-0.69 4.39,-1.37 6.53,-3.25 -2.85,-1.43 -5.44,-2.36 -9.81,-1.08 -0.07,-1.11 0.04,-1.39 -0.03,-2.51 -1.76,2.89 -2.71,4.55 -3.49,7.02 1.97,-2.25 5.76,-3.26 6.91,-2.37 -11.55,3.63 -5.42,16.69 5.19,14.69 7.55,-1.32 14.56,-15.1 -0.91,-22.75 -6.13,-2.03 -12.54,0.21 -16.44,4.43 -1.64,-1 -3.61,-1.18 -6.23,-1.21 2.05,1.39 3.43,3.02 3.31,5.18 -1.16,5.53 -1.15,11.2 0.9,15.97 -15.38,-7.44 -26.86,-2.65 -40.13,3.68zm242.31 0c-1.91,-2.54 -8.98,-7.57 -22.55,-9.42 3.49,-2.35 9.93,-2.74 15.92,-2.3 -0.93,0.43 -1.7,0.97 -2.15,1.72 5.32,0.44 11.51,3.09 15.07,6.14l-3.39 1.03c4.93,4.09 9.35,8.32 10.04,13.11 -4.55,-0.76 -8.6,-2.17 -11.9,-4.59 -0.11,0.89 0.06,2.04 0.5,3.41 -3.64,-1.06 -6.77,-2.95 -9.23,-5.89 0.31,1.29 0.13,2.85 -0.22,4.09 -8.84,-12.26 -18.35,-16.3 -33.84,-7.04l-0.96 0.26c-2.1,2.53 -5.09,4.58 -9.15,5.92 -10.09,2.26 -16.91,0.77 -24.5,-7.41 -1.69,-1.43 -6.27,-0.54 -7.69,0.02 0.27,-0.8 1.44,-1.59 1.72,-2.53 -2.64,0.4 -6.05,0.74 -8.4,0.08 1.07,-2.76 6.59,-5.91 7.09,-5.14 1.43,1.78 2.91,3.25 4.96,3.92 -2.69,-4.15 -4.96,-10.7 -3.59,-19.12l-0.08 -1.04c0.23,-0.69 0.47,-1.36 0.72,-2l0 -0.01 0.01 0c5.6,-14.26 18.12,-17.42 31.76,-20.85 -2.92,-0.63 -15.15,0.7 -24.84,8.34 1.19,-4.35 9.89,-10.69 14.47,-12.6l-0.79 3.13c5.27,-2.23 19.58,-3.07 23.64,1.7 -3.7,2.25 -7.45,3.74 -11.28,4.03 0.47,0.71 1.29,1.42 2.45,2.13 -3.23,1.48 -9.34,2.52 -12.89,1.94 1.02,0.73 1.85,1.95 2.36,3.05 -11.65,-3.54 -17.49,-2.54 -22.49,10.02 -2.76,13.6 1.2,20.84 7.1,25.5 2.54,1.25 5.8,0.95 8.45,0.19 0.11,2.19 -1.51,3.49 -3.16,4.01 15.61,3.04 28.94,-3.61 25.84,-21.16 -4.04,-10.67 -20.42,-13.48 -23.8,-0.68 -1.48,10.22 7.94,12.04 11.77,9.76 4.18,-2.72 3.06,-10.47 -3.31,-6.97 0.24,-1.11 1,-1.85 2.14,-2.55 -2.7,-0.69 -4.39,-1.37 -6.53,-3.25 2.84,-1.43 5.43,-2.36 9.81,-1.08 0.07,-1.11 -0.04,-1.39 0.03,-2.51 1.75,2.89 2.71,4.55 3.49,7.02 -1.97,-2.25 -5.76,-3.26 -6.91,-2.37 11.55,3.63 5.42,16.69 -5.19,14.69 -7.55,-1.32 -14.56,-15.1 0.91,-22.75 6.13,-2.03 12.54,0.21 16.44,4.43 1.63,-1 3.61,-1.18 6.22,-1.21 -2.04,1.39 -3.42,3.02 -3.3,5.18 1.16,5.53 1.14,11.2 -0.91,15.97 15.39,-7.44 26.86,-2.65 40.14,3.68zm-108.58 -76.4c5.84,4.15 9.78,10.62 12.16,18.87 -2.39,1.15 -11.56,3.89 -13.51,3.07 -8.58,-1.55 -9.3,-19.04 1.35,-21.94zm4.72 10.31c0.4,0 0.72,0.32 0.72,0.72 0,0.4 -0.32,0.72 -0.72,0.72 -0.4,0 -0.72,-0.32 -0.72,-0.72 0,-0.4 0.32,-0.72 0.72,-0.72zm-0.75 -0.97c1.33,0 2.42,1.08 2.42,2.41 0,1.34 -1.09,2.42 -2.42,2.42 -1.34,0 -2.42,-1.08 -2.42,-2.42 0,-1.33 1.08,-2.41 2.42,-2.41zm-55.39 28.73c2.56,-3.04 7.86,-6.82 13.39,-8.22 -0.34,-0.34 -1.08,-2.24 -0.98,-2.59 -4.5,1.59 -10.94,4.49 -12.97,9.81 -2.66,-4.96 -4.37,-10.51 -4.78,-16.64l0 -38.84c15.36,11.63 29.93,-8.28 44.03,0 14.1,-8.28 28.67,11.63 44.03,0l0 33.23c-27.48,28.64 -36.41,6.74 -66.14,11.59 -0.09,0.98 0.19,1.92 0.66,2.83 22.66,-4.14 46.72,16.8 65.48,-12.32l0 3.51c-1.61,24.18 -23.43,39.29 -44.03,44.77 -15.02,-3.99 -30.68,-13.11 -38.69,-27.13zm30 -5.19c-0.12,0.2 0.08,0.34 0.32,0.32 13.81,-0.97 38.12,14.62 50.82,-11.04 0.27,-0.54 -0.09,-0.69 -0.33,-0.41 -20.57,25.01 -41.54,4.69 -50.81,11.13zm-15.39 -13.56c0,-20.6 16.68,-29.38 35.02,-20.24 -8.93,2.08 -10.98,14.63 -5.87,22.26 -7.8,-1.42 -19.91,-11.94 -29.15,-2.02zm10.79 -28.73c-0.59,0.1 -0.57,0.82 -0.01,0.79 1.35,-0.11 6.68,0.34 7.24,2.43 -20.54,0 -27.69,26.33 -14.16,41.69 4.78,4.94 3.93,6.62 4.84,8.52 2.42,-0.65 1.22,-5.41 1.22,-6.89 2.34,-0.54 3.87,-2.02 4.23,-4.28 0.21,-1.35 0.02,-1.23 0.02,-2.6 -1.97,1.32 -1.91,3.04 -6.48,3.04 -1.95,0 -4.33,-1.36 -5.18,-2.51 -1.96,-2.64 -2.59,-5.72 -0.73,-8.67 3.23,-5.13 8.91,-4.93 14.04,-3.22 6.93,2.31 10.8,5.27 19,5.27 6.47,0 10.33,-2.47 16.05,-3.8 -0.87,-12 -11.05,-22.13 -19.3,-24.92 -7.78,-5.92 -11.27,-7.06 -20.78,-4.85zm-87.19 89.13l13.53 0c1.4,0.63 2.88,1.41 4.46,2.36 0.23,0.14 0.46,0.26 0.69,0.36 0.52,0.52 1.06,1.02 1.63,1.49l-25.07 0c1.6,-1.82 3.16,-3.22 4.76,-4.21zm68.18 0l64.9 0c0.1,0.1 0.19,0.2 0.29,0.29 1.82,1.75 4.32,2.25 6.66,1.32 0.41,-0.14 1.29,-0.3 1.98,-0.35 1.08,1.08 2.16,2.06 3.26,2.95l-89.27 0c1.09,-0.89 2.18,-1.87 3.25,-2.95 0.71,0.05 1.6,0.22 2.01,0.36 2.3,0.91 4.82,0.42 6.64,-1.33 0.1,-0.09 0.19,-0.19 0.28,-0.29zm119.56 0l13.53 0c1.6,0.99 3.16,2.39 4.75,4.21l-25.06 0c0.56,-0.47 1.11,-0.97 1.63,-1.49 0.23,-0.1 0.46,-0.22 0.69,-0.36 1.58,-0.95 3.06,-1.73 4.46,-2.36z"/>
 </g>
</svg>
