<?xml version="1.0" encoding="UTF-8"?>
<!DOCTYPE svg PUBLIC "-//W3C//DTD SVG 1.1//EN" "http://www.w3.org/Graphics/SVG/1.1/DTD/svg11.dtd">
<!-- Creator: CorelDRAW 2018 (64 Bit Versão de avaliação) -->
<svg xmlns="http://www.w3.org/2000/svg" xml:space="preserve" width="1000px" height="403px" version="1.1" style="shape-rendering:geometricPrecision; text-rendering:geometricPrecision; image-rendering:optimizeQuality; fill-rule:evenodd; clip-rule:evenodd"
viewBox="0 0 2562.19 1033.23"
 xmlns:xlink="http://www.w3.org/1999/xlink">
 <defs>
  <style type="text/css">
   <![CDATA[
    .fil0 {fill:white}
   ]]>
  </style>
 </defs>
 <g id="Camada_x0020_1">
  <metadata id="CorelCorpID_0Corel-Layer"/>
  <path class="fil0" d="M8.73 437.2l682.69 0c-3.08,5.52 -5.55,11.33 -7.19,17.46l-675.5 0c-4.8,0 -8.73,-3.92 -8.73,-8.73l0 0c0,-4.8 3.93,-8.73 8.73,-8.73zm1256.35 -427.71c64.32,-37.79 130.8,53.07 200.86,0l0 177.19c-7.33,110.3 -106.88,179.26 -200.86,204.25 -93.97,-24.99 -193.52,-93.95 -200.86,-204.25l0 -177.19c70.07,53.07 136.54,-37.79 200.86,0zm-502.71 413.9c7.95,-10.53 37.29,-31.45 93.66,-39.13 -14.48,-9.75 -41.24,-11.36 -66.13,-9.54 3.88,1.79 7.08,4.02 8.92,7.11 -22.07,1.84 -47.8,12.88 -62.57,25.52l14.08 4.28c-20.5,17.01 -38.88,34.56 -41.72,54.47 18.89,-3.14 35.74,-9.01 49.43,-19.08 0.48,3.72 -0.23,8.47 -2.06,14.2 15.1,-4.41 28.13,-12.28 38.32,-24.49 -1.28,5.38 -0.54,11.85 0.92,17.01 36.74,-50.94 76.23,-67.74 140.58,-29.26l4 1.1c8.75,10.47 21.14,19 38.01,24.57 41.93,9.38 70.27,3.19 101.79,-30.79 7.02,-5.94 26.08,-2.23 31.97,0.11 -1.15,-3.33 -5.99,-6.65 -7.15,-10.51 10.96,1.65 25.12,3.03 34.91,0.32 -4.45,-11.48 -27.39,-24.58 -29.49,-21.36 -5.93,7.4 -12.06,13.49 -20.59,16.27 11.16,-17.24 20.61,-44.44 14.9,-79.42l0.33 -4.32c-0.94,-2.88 -1.93,-5.65 -2.99,-8.33l-0.01 -0.04 -0.01 0c-23.28,-59.23 -75.29,-72.34 -131.95,-86.61 12.12,-2.61 62.94,2.9 103.19,34.64 -4.93,-18.08 -41.09,-44.4 -60.1,-52.33l3.26 12.99c-21.87,-9.28 -81.33,-12.75 -98.22,7.06 15.36,9.36 30.94,15.53 46.86,16.77 -1.94,2.93 -5.36,5.88 -10.18,8.83 13.45,6.14 38.81,10.48 53.56,8.05 -4.21,3.04 -7.66,8.1 -9.79,12.66 48.4,-14.7 72.67,-10.53 93.44,41.65 11.46,56.51 -4.98,86.6 -29.5,105.96 -10.54,5.18 -24.11,3.94 -35.13,0.76 -0.43,9.1 6.3,14.52 13.13,16.69 -64.85,12.6 -120.23,-15.02 -107.32,-87.91 16.78,-44.36 84.83,-56.02 98.86,-2.82 6.16,42.44 -32.98,49.98 -48.88,40.54 -17.39,-11.31 -12.75,-43.52 13.72,-28.96 -0.99,-4.63 -4.14,-7.7 -8.89,-10.6 11.21,-2.89 18.25,-5.71 27.15,-13.52 -11.82,-5.95 -22.59,-9.8 -40.77,-4.48 -0.29,-4.63 0.18,-5.78 -0.1,-10.4 -7.31,12 -11.28,18.88 -14.53,29.15 8.21,-9.38 23.96,-13.54 28.72,-9.86 -47.97,15.08 -22.53,69.36 21.57,61.03 31.36,-5.48 60.49,-62.73 -3.79,-94.53 -25.45,-8.41 -52.08,0.9 -68.28,18.42 -6.81,-4.14 -15.02,-4.92 -25.88,-5.02 8.49,5.78 14.21,12.54 13.74,21.5 -4.81,22.99 -4.76,46.56 3.75,66.36 -63.93,-30.92 -111.6,-11.01 -166.74,15.29zm1006.7 0c-7.95,-10.53 -37.29,-31.45 -93.66,-39.13 14.48,-9.75 41.24,-11.36 66.12,-9.54 -3.87,1.79 -7.07,4.02 -8.91,7.11 22.07,1.84 47.8,12.88 62.57,25.52l-14.09 4.28c20.51,17.01 38.89,34.56 41.73,54.47 -18.89,-3.14 -35.74,-9.01 -49.43,-19.08 -0.48,3.72 0.23,8.47 2.06,14.2 -15.11,-4.41 -28.13,-12.28 -38.32,-24.49 1.28,5.38 0.54,11.85 -0.92,17.01 -36.74,-50.94 -76.23,-67.74 -140.59,-29.26l-3.99 1.1c-8.75,10.47 -21.14,19 -38.02,24.57 -41.93,9.38 -70.26,3.19 -101.78,-30.79 -7.02,-5.94 -26.08,-2.23 -31.98,0.11 1.16,-3.33 6,-6.65 7.15,-10.51 -10.95,1.65 -25.12,3.03 -34.9,0.32 4.44,-11.48 27.39,-24.58 29.48,-21.36 5.93,7.4 12.07,13.49 20.6,16.27 -11.16,-17.24 -20.61,-44.44 -14.91,-79.42l-0.32 -4.32c0.93,-2.88 1.93,-5.65 2.98,-8.33l0.01 -0.04 0.01 0c23.29,-59.23 75.3,-72.34 131.95,-86.61 -12.11,-2.61 -62.93,2.9 -103.19,34.64 4.93,-18.08 41.09,-44.4 60.11,-52.33l-3.27 12.99c21.88,-9.28 81.34,-12.75 98.22,7.06 -15.36,9.36 -30.94,15.53 -46.86,16.77 1.94,2.93 5.36,5.88 10.18,8.83 -13.45,6.14 -38.81,10.48 -53.55,8.05 4.21,3.04 7.66,8.1 9.79,12.66 -48.4,-14.7 -72.68,-10.53 -93.44,41.65 -11.46,56.51 4.97,86.6 29.5,105.96 10.54,5.18 24.11,3.94 35.12,0.76 0.44,9.1 -6.29,14.52 -13.12,16.69 64.85,12.6 120.23,-15.02 107.31,-87.91 -16.77,-44.36 -84.83,-56.02 -98.85,-2.82 -6.16,42.44 32.97,49.98 48.88,40.54 17.39,-11.31 12.75,-43.52 -13.72,-28.96 0.98,-4.63 4.14,-7.7 8.89,-10.6 -11.21,-2.89 -18.26,-5.71 -27.16,-13.52 11.83,-5.95 22.59,-9.8 40.77,-4.48 0.29,-4.63 -0.18,-5.78 0.11,-10.4 7.3,12 11.28,18.88 14.53,29.15 -8.21,-9.38 -23.96,-13.54 -28.73,-9.86 47.98,15.08 22.53,69.36 -21.57,61.03 -31.35,-5.48 -60.49,-62.73 3.79,-94.53 25.46,-8.41 52.09,0.9 68.29,18.42 6.81,-4.14 15.02,-4.92 25.88,-5.02 -8.49,5.78 -14.22,12.54 -13.74,21.5 4.81,22.99 4.76,46.56 -3.75,66.36 63.93,-30.92 111.59,-11.01 166.74,15.29zm-1561.66 82.27c12.42,1.33 19.97,2.66 25.74,4.88 5.76,1.78 7.54,4.88 7.54,7.99 0,6.65 -5.32,16.42 -16.86,31.95 -34.17,45.7 -55.02,65.23 -74.99,75.88 -1.33,0 -1.78,6.65 -1.78,7.98 2.22,1.78 6.21,5.77 7.1,7.55 17.75,25.29 48.37,66.56 71.44,91.85 20.86,23.96 35.94,27.51 61.68,27.51 6.33,0 16.54,-0.25 27.2,-0.56l0 -27.29c-3.41,-2.09 -7.08,-4.91 -11.22,-8.53 -24.85,-23.52 -78.1,-83.87 -98.51,-118.92 -0.45,-0.45 -0.45,-1.34 0,-2.22 14.64,-16.42 39.05,-45.71 59.46,-69.67 19.08,-22.63 30.62,-24.4 55.47,-28.4 2.21,-2.22 2.21,-13.31 0.44,-15.09 -13.76,0.45 -25.74,0.89 -59.02,1.33 -23.52,0 -37.27,-1.33 -53.25,-1.33 -1.77,1.78 -1.77,11.99 -0.44,15.09zm115.37 254.78c14.98,-0.47 29.09,-0.96 32.84,-0.96 21.3,-0.45 38.6,1.33 48.36,1.33 0.89,-2.67 2.22,-13.31 1.33,-15.09 -7.54,-0.89 -13.75,-2.22 -20.85,-3.55 -11.54,-2.66 -11.54,-9.32 -10.65,-15.53 0.89,-8.43 10.21,-33.28 17.75,-55.02 0.44,-1.78 3.11,-4 4.44,-4 6.21,-0.44 18.19,-0.44 35.5,-0.44 11.53,0 26.62,-0.44 33.72,0 1.77,0 3.99,2.22 4.44,3.11 6.21,15.53 16.86,46.15 20.41,60.79 0.44,1.33 0.44,5.76 -3.99,8.43 -4,2.66 -15.54,4.88 -22.19,6.21 -1.33,1.78 -0.89,12.42 0,15.09 16.86,0 31.06,-1.33 67.89,-1.33 30.95,0 49.48,1.06 60.99,1.29l0 -15.99c-27.62,-4.93 -30.81,-10.14 -44.57,-44.76 -15.09,-39.49 -50.14,-140.22 -65.23,-183.27 -2.66,-7.09 -5.77,-18.63 -7.54,-25.73 -6.66,0.44 -13.32,0.88 -22.63,0.88 -7.99,0 -15.98,-0.44 -23.08,-0.88 -0.89,7.54 -5.33,22.18 -8.43,31.06 -11.54,31.95 -52.36,143.77 -77.21,200.12 -6.21,14.64 -10.21,15.98 -14.64,15.98 -2.23,0 -4.42,-0.31 -6.66,-0.96l0 23.22zm278.29 0.31c15.13,-0.25 31.34,-1.27 46.52,-1.27 29.29,0 46.6,1.33 61.24,1.33 1.77,-2.22 2.66,-13.76 0.89,-15.09 -13.31,-1.77 -20.42,-3.55 -28.4,-5.77 -12.87,-3.99 -15.98,-9.76 -15.98,-25.73 0,-31.51 4.88,-120.7 7.55,-155.31 0.88,-0.45 1.77,-0.89 2.66,-0.89 39.49,94.96 68.33,162.85 78.98,199.24 1.78,0.44 17.31,0.88 19.97,-0.45 12.43,-35.94 65.23,-153.08 85.2,-198.35 0.44,0 1.77,-0.44 2.22,0 0,43.05 0.44,124.7 -0.45,159.75 -0.44,13.31 -2.21,19.52 -9.32,22.19 -6.21,2.22 -12.86,3.1 -23.51,5.32 -1.33,1.78 -1.78,12.87 0,15.09 19.52,0 38.6,-1.33 63.01,-1.33 43.49,0 60.79,1.33 75.43,1.33 2.22,-2.22 3.11,-12.87 1.34,-15.09 -10.21,-1.77 -19.09,-3.55 -25.3,-5.32 -12.42,-2.67 -14.64,-12.87 -15.53,-24.41 -2.22,-30.62 -5.77,-150.87 -4.88,-182.37 0,-11.54 1.33,-18.64 11.98,-22.63 6.21,-1.78 14.64,-3.56 27.07,-5.33 1.77,-1.77 1.77,-14.2 0,-15.09 -26.62,0 -47.92,1.33 -98.07,1.33 -0.44,6.66 -4.43,17.31 -8.43,27.07 -12.87,31.95 -51.47,114.04 -63.9,137.12 -0.44,0.44 -1.77,0.88 -2.66,0 -11.98,-23.52 -45.26,-97.18 -62.56,-135.79 -4.44,-9.31 -7.55,-19.52 -8.43,-28.4 -42.6,0 -72.78,-1.33 -106.5,-1.33 -1.33,0.89 -2.67,12.87 -1.78,15.09 12.87,2.22 23.97,4 31.95,7.1 9.32,3.55 11.54,12.87 11.1,21.3 -1.34,34.61 -11.1,144.66 -15.09,178.38 -2.67,19.97 -7.99,25.74 -20.41,29.29 -4.63,1.32 -9.99,2.15 -15.91,3.04l0 15.98zm244.74 115.65c5.58,0.79 9.3,1.33 13.82,2.39 5.32,1.59 6.65,4.52 7.18,13.03 0.27,7.97 0.27,31.1 0.27,57.15 0,23.39 0,47.85 -0.27,51.83 -0.8,11.43 -2.39,15.42 -9.57,17.01l-12.23 2.4c-1.06,1.06 -0.8,8.24 0.27,9.04 5.31,0 18.34,-0.8 38.81,-0.8 24.45,0 37.21,0.8 42,0.8 1.06,-1.07 2.12,-7.71 1.06,-9.04 -5.32,-1.07 -11.16,-2.13 -14.62,-3.19 -6.38,-1.86 -7.18,-6.38 -7.18,-14.09 -0.26,-11.96 -0.26,-29.77 -0.26,-46.52 0,-0.27 0.26,-1.33 0.53,-1.59 1.06,-0.54 3.46,-0.54 34.03,-0.8 11.69,0 24.72,0 30.03,0.26 0.8,0 1.33,1.07 1.33,1.86 0,17.28 0.27,35.89 -0.26,48.38 -0.27,8.51 -2.4,11.97 -6.92,13.29 -3.72,0.8 -7.44,1.6 -12.75,2.4 -1.33,1.33 -1.33,7.97 0,9.04 5.84,0 22.59,-0.8 40.4,-0.8 18.87,0 32.7,0.8 39.34,0.8 1.33,-0.8 1.86,-7.98 1.33,-9.04 -9.04,-1.6 -13.29,-2.13 -17.01,-3.46 -4.26,-1.86 -5.32,-6.11 -5.59,-13.29 -0.53,-11.7 -0.53,-32.43 -0.53,-50.24 0,-32.7 -0.26,-43.86 0.53,-61.67 0.27,-8.24 1.87,-10.9 6.65,-12.49 2.93,-1.33 7.71,-1.87 12.49,-2.66 1.33,-1.33 1.33,-7.98 0.27,-9.04 -7.71,0 -15.95,0.8 -37.74,0.8 -20.74,0 -29.51,-0.8 -40.41,-0.8 -1.6,1.06 -1.6,7.98 -0.27,9.04 6.38,0.79 10.9,1.33 14.62,2.66 3.99,1.32 5.05,5.84 5.32,9.3 0.8,14.62 0.53,34.29 0.53,47.58 0,0.8 -1.06,1.6 -1.59,1.86 -3.46,0.27 -12.5,0.27 -28.71,0.27 -28.71,0 -31.9,0 -34.29,-0.53 -0.8,-0.27 -1.07,-1.07 -1.33,-1.86 0,-14.62 -0.27,-30.84 0.26,-43.6 0,-7.97 1.33,-11.43 6.38,-13.29 2.66,-1.06 7.98,-1.86 12.23,-2.39 1.33,-0.8 1.33,-7.71 0.27,-9.04 -6.91,0 -18.35,0.8 -39.08,0.8 -21.8,0 -32.96,-0.8 -39.07,-0.8 -1.07,0.8 -1.33,8.24 -0.27,9.04zm-837.08 -73.51l2544.73 0c4.81,0 8.73,3.93 8.73,8.74l0 0c0,4.8 -3.92,8.73 -8.73,8.73l-2544.73 0c-4.8,0 -8.73,-3.93 -8.73,-8.73l0 0c0,-4.81 3.93,-8.74 8.73,-8.74zm1309.22 -696.91c24.27,17.26 40.64,44.13 50.55,78.4 -9.93,4.77 -48.04,16.15 -56.15,12.74 -35.62,-6.4 -38.65,-79.09 5.6,-91.14zm19.62 42.84c1.66,0 3.01,1.34 3.01,3 0,1.65 -1.35,3 -3.01,3 -1.65,0 -3,-1.35 -3,-3 0,-1.66 1.35,-3 3,-3zm-3.11 -4.04c5.55,0 10.04,4.49 10.04,10.04 0,5.54 -4.49,10.04 -10.04,10.04 -5.55,0 -10.04,-4.5 -10.04,-10.04 0,-5.55 4.49,-10.04 10.04,-10.04zm-230.14 119.36c10.66,-12.64 32.66,-28.33 55.63,-34.15 -1.41,-1.41 -4.46,-9.31 -4.05,-10.77 -18.7,6.63 -45.46,18.66 -53.89,40.76 -11.05,-20.6 -18.15,-43.65 -19.85,-69.13l0 -161.35c63.81,48.33 124.35,-34.42 182.92,0 58.57,-34.42 119.11,48.33 182.92,0l0 138.06c-114.17,118.98 -151.26,27.99 -274.8,48.16 -0.36,4.07 0.8,7.96 2.77,11.74 94.15,-17.19 194.11,69.8 272.03,-51.2l0 14.59c-6.68,100.45 -97.33,163.25 -182.92,186.01 -62.39,-16.59 -127.48,-54.48 -160.76,-112.72zm124.64 -21.54c-0.48,0.81 0.36,1.4 1.36,1.33 57.37,-4.05 158.37,60.73 211.13,-45.89 1.11,-2.25 -0.38,-2.86 -1.4,-1.69 -85.42,103.91 -172.56,19.47 -211.09,46.25zm-63.92 -56.35c0,-85.58 69.29,-122.07 145.5,-84.1 -37.1,8.63 -45.64,60.78 -24.4,92.51 -32.4,-5.93 -82.71,-49.61 -121.1,-8.41zm44.82 -119.35c-2.46,0.4 -2.36,3.38 -0.04,3.29 5.6,-0.47 27.75,1.4 30.07,10.09 -85.33,0 -115.04,109.39 -58.83,173.2 19.87,20.5 16.35,27.48 20.14,35.37 10.03,-2.67 5.05,-22.48 5.05,-28.59 9.71,-2.26 16.09,-8.39 17.58,-17.78 0.89,-5.62 0.08,-5.14 0.08,-10.81 -8.19,5.48 -7.94,12.61 -26.91,12.61 -8.11,0 -17.99,-5.63 -21.54,-10.42 -8.12,-10.96 -10.76,-23.75 -3.04,-36.02 13.42,-21.33 37.03,-20.49 58.34,-13.39 28.81,9.6 44.85,21.93 78.93,21.93 26.88,0 42.93,-10.28 66.7,-15.82 -3.62,-49.86 -45.94,-91.93 -80.18,-103.52 -32.35,-24.6 -46.83,-29.35 -86.35,-20.14zm358.45 809.5c5.32,0.79 10.9,1.33 14.09,2.39 6.12,1.59 7.45,5.58 7.71,10.9 0.53,10.37 0.53,24.46 0.53,55.29 0,26.85 -0.53,55.82 -1.06,61.67 -0.8,6.38 -2.39,9.3 -7.44,10.9 -5.06,1.33 -6.92,1.59 -15.42,2.66 -1.06,1.06 -1.06,7.44 0,9.04 9.83,0 19.94,-0.8 40.67,-0.8 20.73,0 49.18,1.33 70.97,1.33 11.7,0 14.89,-1.6 15.69,-3.73 6.38,-10.1 15.42,-41.73 16.21,-48.37 -0.53,-1.87 -8.24,-4.26 -9.57,-3.46 -4.52,10.37 -12.49,24.72 -18.07,31.9 -5.05,6.91 -9.84,8.77 -14.89,8.77 -12.23,0.27 -27.65,0 -33.76,-1.33 -2.13,-0.79 -4.78,-3.45 -5.05,-8.24 -0.53,-6.91 -1.06,-39.87 -0.8,-66.72 0,-26.58 0.27,-44.13 0.54,-48.38 0.26,-6.91 1.06,-9.57 6.91,-11.43 2.66,-0.8 5.85,-1.33 12.76,-2.39 0.79,-1.33 1.06,-7.98 0,-9.04 -9.84,0.27 -20.21,0.8 -39.35,0.8 -21.79,0 -28.97,-0.8 -39.87,-0.8 -1.06,0.53 -1.86,7.44 -0.8,9.04zm-154.97 0c5.05,0.53 9.83,1.06 13.82,2.39 5.05,1.59 6.91,3.72 7.45,11.17 0.79,9.56 0.79,30.3 0.79,49.97 0,30.57 0,48.91 -0.79,64.06 0,8.51 -2.66,11.43 -7.45,12.76 -3.72,1.06 -10.37,2.13 -19.67,3.46 -0.53,1.33 -0.53,6.91 0,9.04 14.35,0 33.76,-0.8 47.85,-0.8 28.18,0 53.7,1.06 76.03,1.06 11.42,0 12.75,-1.86 13.82,-4.25 4.78,-9.04 10.9,-32.96 12.23,-39.08 -1.07,-1.33 -7.98,-3.72 -9.84,-3.45 -3.99,9.3 -9.04,18.6 -14.09,24.45 -5.85,6.91 -9.57,7.98 -21.53,7.98 -14.89,0 -27.91,-0.8 -32.96,-1.86 -3.19,-0.8 -5.59,-4.52 -5.59,-8.78l0 -46.78c0,-0.53 1.07,-2.39 1.87,-2.39 7.97,0 28.44,0 33.23,0.53 5.31,0.8 7.44,3.72 9.03,7.71l2.66 10.89c1.33,0.8 9.04,0.54 10.37,-0.26 -0.27,-7.44 -0.53,-19.67 -0.53,-26.85 0,-8.5 1.06,-19.4 1.33,-25.78 -1.33,-1.07 -9.31,-1.33 -10.64,-0.53 -0.8,3.45 -1.33,6.91 -2.13,9.57 -1.59,6.64 -3.98,9.03 -9.56,9.3 -8.51,0.53 -26.85,0.26 -33.76,0.26 -0.8,0 -1.87,-1.06 -1.87,-2.12 0,-18.08 -0.26,-34.56 0,-51.57 0,-1.33 1.33,-4.52 2.66,-4.79 4.26,-0.53 30.04,-0.53 36.95,0.27 3.72,0.27 8.24,1.59 10.9,6.91 2.13,4.25 3.46,9.84 5.05,19.67 1.33,0.8 8.51,0.27 10.1,-0.8 0.8,-14.88 1.86,-31.89 3.72,-40.13 0,-0.54 -0.53,-1.07 -0.79,-1.07 -9.3,1.33 -24.19,1.6 -34.56,1.6l-53.43 0c-13.03,0 -29.77,-0.8 -40.14,-0.8 -1.06,0.8 -1.59,7.71 -0.53,9.04zm-50.51 143.81c-9.3,-1.33 -13.29,-1.6 -17.81,-3.19 -5.58,-2.13 -6.38,-7.18 -6.64,-12.23 -0.8,-16.75 -0.53,-83.2 -0.53,-120.95 0,-1.06 0.53,-1.86 1.06,-2.13 3.99,-0.26 20.73,-0.53 27.91,0.27 5.05,0.53 7.97,2.13 10.37,8.24 2.39,6.65 3.98,14.09 5.31,23.66 0.8,0.8 8.78,0.53 9.84,-0.53 1.33,-17.28 3.72,-35.09 6.38,-46.26 0,-0.53 -0.8,-2.12 -1.6,-2.12 -6.91,2.12 -15.68,3.19 -30.03,3.19l-94.1 0c-6.38,0 -15.95,-0.53 -24.46,-3.46 -0.8,-0.27 -2.39,1.06 -2.39,1.6 -0.8,11.96 -3.46,34.29 -5.58,45.19 0.79,1.86 9.03,3.45 10.1,2.66 2.92,-8.78 6.38,-16.49 9.57,-22.6 3.72,-7.18 7.44,-9.3 13.02,-9.57 6.12,-0.53 20.73,-0.53 25.52,0 0.8,0 1.33,1.59 1.33,2.13 0,41.46 0.26,90.37 -0.8,117.22 -0.79,11.7 -2.92,14.62 -9.83,16.22 -3.46,1.06 -10.37,1.86 -17.02,2.66 -1.33,1.06 -1.33,7.71 0,9.04 8.78,0 22.6,-0.8 46.79,-0.8 18.07,0 32.43,0.8 43.06,0.8 1.07,-1.07 1.6,-7.98 0.53,-9.04zm-224.09 13.02c27.65,0 53.97,-10.63 71.25,-33.76 10.89,-14.35 15.95,-34.02 15.95,-53.69 0,-44.66 -29.25,-82.41 -84.54,-82.41 -27.91,0 -50.24,9.84 -65.39,24.99 -18.08,15.95 -24.45,38.54 -24.45,59.81 0,20.2 6.11,43.59 22.32,60.87 14.63,14.89 35.09,24.19 64.86,24.19zm7.98 -11.96c-10.9,0 -19.67,-3.99 -27.11,-10.1 -18.61,-16.22 -25.26,-47.32 -25.26,-71.51 0,-25.25 5.05,-47.84 19.94,-58.74 5.05,-3.99 12.76,-6.12 20.2,-6.12 10.1,0 17.81,3.19 25.25,9.57 16.49,14.62 23.4,43.6 23.4,70.45 0,22.59 -3.99,46.25 -16.22,57.95 -5.31,5.31 -13.02,8.5 -20.2,8.5zm1042.85 -275.55c-1.77,2.22 -1.33,12.87 0,15.09 15.53,0 33.73,-1.33 50.14,-1.33 25.74,0 43.05,1.33 55.92,1.33 1.32,-1.78 2.66,-13.31 1.32,-15.09 -7.98,-1.33 -14.64,-2.66 -21.74,-4.43 -11.09,-2.22 -11.98,-8.44 -12.42,-14.65 0,-7.54 9.32,-33.28 16.86,-55.02 0.89,-1.78 3.55,-4 4.88,-4 6.21,-0.44 17.75,-0.44 35.5,-0.44 11.54,0 26.62,-0.44 33.72,0 1.78,0 3.55,2.22 4.44,3.11 6.21,15.53 16.86,46.15 20.41,60.79 0.45,1.33 0.45,5.76 -4.43,8.43 -4,2.66 -12.87,4.44 -21.75,6.21 -1.33,1.78 -0.89,12.42 0,15.09 16.86,0 30.62,-1.33 67.89,-1.33 34.17,0 53.7,1.33 64.79,1.33 1.77,-1.78 2.66,-13.31 1.77,-15.09 -33.28,-5.32 -35.5,-8.88 -50.14,-45.7 -15.09,-39.49 -50.14,-140.22 -65.67,-183.27l-7.55 -25.73c-6.21,0.44 -12.86,0.88 -22.18,0.88 -7.99,0 -16.42,-0.44 -23.08,-0.88 -0.88,7.54 -5.32,22.18 -8.87,31.06 -11.09,31.95 -47.03,130.46 -71.44,188.14 -11.09,26.62 -17.31,30.62 -48.37,35.5zm130.9 -189.92c8.88,24.41 23.52,69.22 27.96,82.98 0,0.89 -0.89,2.22 -1.33,2.22 -4.44,0.44 -15.09,0.44 -29.73,0.44 -11.98,0 -20.42,0 -25.3,-0.44 -0.88,0 -1.33,-1.33 -0.88,-3.11 7.1,-20.41 18.63,-57.24 27.51,-82.09 0,-0.44 1.33,0 1.77,0zm55.47 -145.1c-9.32,5.77 -48.37,45.71 -59.46,57.69 0,3.1 7.54,11.98 9.32,11.98 3.55,0 71.88,-33.28 80.31,-40.82 0.45,-0.45 0.45,-4.44 0,-4.89 -2.66,-6.21 -23.96,-23.96 -30.17,-23.96zm-215.66 335.02c-15.53,-2.22 -22.18,-2.66 -29.72,-5.32 -9.32,-3.56 -10.66,-11.98 -11.1,-20.42 -1.33,-27.95 -0.89,-138.88 -0.89,-201.89 0,-1.78 0.89,-3.11 1.78,-3.56 6.65,-0.44 34.61,-0.88 46.59,0.45 8.43,0.89 13.31,3.55 17.31,13.75 3.99,11.1 6.65,23.52 8.87,39.5 1.33,1.33 14.65,0.89 16.42,-0.89 2.22,-28.84 6.21,-58.57 10.65,-77.21 0,-0.89 -1.33,-3.55 -2.66,-3.55 -11.54,3.55 -26.18,5.32 -50.15,5.32l-157.08 0c-10.65,0 -26.62,-0.88 -40.82,-5.76 -1.33,-0.45 -3.99,1.77 -3.99,2.66 -1.34,19.97 -5.77,57.24 -9.32,75.43 1.33,3.11 15.08,5.77 16.86,4.44 4.88,-14.64 10.65,-27.51 15.97,-37.72 6.22,-11.98 12.43,-15.53 21.75,-15.97 10.2,-0.89 34.61,-0.89 42.59,0 1.34,0 2.22,2.66 2.22,3.55 0,69.22 0.45,150.87 -1.33,195.69 -1.33,19.52 -4.88,24.4 -16.42,27.07 -5.76,1.77 -17.3,3.1 -28.39,4.43 -2.22,1.78 -2.22,12.87 0,15.09 14.64,0 37.71,-1.33 78.09,-1.33 30.18,0 54.14,1.33 71.89,1.33 1.77,-1.78 2.66,-13.31 0.88,-15.09zm-473.9 0c-1.78,2.22 -1.34,12.87 0,15.09 15.53,0 33.72,-1.33 50.14,-1.33 25.73,0 43.04,1.33 55.91,1.33 1.33,-1.78 2.66,-13.31 1.33,-15.09 -7.99,-1.33 -14.64,-2.66 -21.74,-4.43 -11.1,-2.22 -11.98,-8.44 -12.43,-14.65 0,-7.54 9.32,-33.28 16.86,-55.02 0.89,-1.78 3.56,-4 4.89,-4 6.21,-0.44 17.75,-0.44 35.49,-0.44 11.54,0 26.63,-0.44 33.73,0 1.77,0 3.55,2.22 4.44,3.11 6.21,15.53 16.86,46.15 20.41,60.79 0.44,1.33 0.44,5.76 -4.44,8.43 -3.99,2.66 -12.87,4.44 -21.74,6.21 -1.34,1.78 -0.89,12.42 0,15.09 16.86,0 30.62,-1.33 67.89,-1.33 34.17,0 53.69,1.33 64.78,1.33 1.78,-1.78 2.67,-13.31 1.78,-15.09 -33.28,-5.32 -35.5,-8.88 -50.14,-45.7 -15.09,-39.49 -50.15,-140.22 -65.68,-183.27l-7.54 -25.73c-6.21,0.44 -12.87,0.88 -22.19,0.88 -7.98,0 -16.41,-0.44 -23.07,-0.88 -0.89,7.54 -5.33,22.18 -8.87,31.06 -11.1,31.95 -47.04,130.46 -71.45,188.14 -11.09,26.62 -17.3,30.62 -48.36,35.5zm130.9 -189.92c8.87,24.41 23.52,69.22 27.95,82.98 0,0.89 -0.88,2.22 -1.33,2.22 -4.43,0.44 -15.09,0.44 -29.73,0.44 -11.98,0 -20.41,0 -25.29,-0.44 -0.89,0 -1.33,-1.33 -0.89,-3.11 7.1,-20.41 18.64,-57.24 27.51,-82.09 0,-0.44 1.33,0 1.78,0zm-233.4 95.85c-2.22,0 -6.22,21.74 -6.66,30.17 0,0.89 0.44,4.89 0.44,4.89 9.32,0 89.19,-1.78 93.19,-3.11 2.21,-0.44 7.54,-22.19 7.98,-29.29 0.45,-0.44 0,-4.88 0,-5.32l-94.95 2.66zm-331.03 -145.99c8.43,0.89 17.75,2.66 23.07,4.44 10.65,3.1 14.2,10.65 14.65,22.18 0.44,52.81 -0.45,120.7 3.54,153.09 4.89,43.05 31.51,82.09 111.38,82.09 68.78,0 114.04,-29.73 117.59,-120.69 0.89,-29.29 2.66,-91.41 3.55,-106.05 1.33,-21.75 4.88,-28.4 15.98,-31.06 5.77,-1.78 11.98,-2.67 18.63,-4 2.22,-2.22 2.22,-12.87 0,-15.09 -10.2,0 -19.96,1.33 -53.69,1.33 -20.41,0 -38.6,-1.33 -55.02,-1.33 -1.78,3.11 -1.78,12.43 -0.45,15.09 9.77,0.89 19.53,2.66 26.18,4.44 14.65,3.1 18.2,11.53 19.09,28.4 1.77,23.96 1.77,94.51 -0.89,127.35 -4.44,59.9 -37.28,70.11 -67.01,70.11 -43.48,0 -64.78,-20.41 -70.11,-51.03 -2.66,-15.97 -3.55,-39.49 -3.55,-56.35 0,-23.52 -0.88,-63.46 0.45,-94.96 0.44,-13.76 3.99,-21.74 15.08,-24.41 5.33,-0.89 12.43,-2.66 20.42,-3.55 1.77,-2.66 1.77,-12.87 0,-15.09 -18.2,0 -40.83,1.33 -70.11,1.33 -27.07,0 -51.92,-1.33 -68.34,-1.33 -1.33,2.22 -1.33,12.43 -0.44,15.09zm-264.91 0c7.1,0.44 16.42,1.77 23.07,4.44 7.99,2.66 11.1,7.1 11.98,19.08 0.89,23.96 0.89,50.14 0.89,95.4 0,49.7 0,83.87 -0.89,95.4 -1.33,12.43 -4.43,17.75 -11.09,19.97 -7.1,2.67 -15.09,4 -28.4,5.77 -2.22,1.33 -1.77,12.42 -0.44,15.09 30.17,0 103.83,2.22 123.36,2.22 26.18,0 55.91,-4 75.87,-12.87 35.5,-15.98 53.25,-39.94 53.25,-74.55 0,-39.05 -28.4,-58.13 -68.33,-66.12 -0.89,-0.44 -0.89,-2.21 0,-2.66 31.95,-8.87 49.25,-31.5 49.25,-55.46 0,-50.59 -45.26,-60.8 -86.97,-60.8 -11.98,0 -43.49,1.33 -78.1,1.33 -33.72,0 -52.8,-1.33 -63.45,-1.33 -1.33,0.89 -1.78,12.87 0,15.09zm112.26 3.55c39.05,0 55.91,23.52 55.91,55.91 0,17.31 -5.32,29.29 -16.86,36.39 -4.43,2.66 -16.42,3.99 -29.73,3.99 -9.76,0 -16.86,0 -20.85,-0.44 -0.89,0 -2.22,-0.89 -2.22,-2.22 0,-29.29 0,-73.22 0.89,-86.09 0.44,-2.22 1.77,-5.32 3.1,-5.76 2.66,-0.89 6.66,-1.78 9.76,-1.78zm22.19 236.51c-4.88,0 -20.85,-2.66 -28.84,-11.54 -2.67,-3.1 -6.21,-9.31 -6.21,-14.2 -1.34,-20.41 -0.89,-60.79 -0.89,-92.74 0,-1.77 1.33,-2.66 2.22,-2.66 3.55,-0.44 8.87,-0.44 13.75,-0.44 42.16,0 65.23,23.52 65.23,61.23 0,39.05 -18.19,60.35 -45.26,60.35zm-1077.39 0.44c-1.33,2.22 -1.33,12.43 0,14.65 11.98,0 31.95,-1.33 67.9,-1.33 31.5,0 48.36,0.88 67,1.33 1.77,-1.33 3.55,-12.87 2.22,-15.09 -9.32,-1.77 -18.2,-3.1 -23.96,-4.88 -8.88,-2.66 -12.43,-8.43 -12.87,-19.97 -0.89,-21.74 -1.33,-61.68 -0.89,-95.4 0.44,-27.51 0.44,-71.44 0.89,-94.07 0.44,-12.87 2.66,-19.08 11.54,-21.74 6.65,-2.23 10.64,-2.67 19.52,-4 1.33,-2.66 0.89,-12.87 0,-15.09 -18.64,0 -40.38,1.33 -63.01,1.33 -33.72,0 -49.26,-1.33 -66.12,-1.33 -1.77,2.67 -2.66,10.21 0,15.09 8.43,1.33 18.64,3.11 23.96,4.88 7.55,2.22 9.76,10.21 10.21,20.41 0.44,15.09 0,52.37 0.44,87.42 0.45,37.72 0,78.54 -0.44,95.85 -0.45,18.63 -2.66,24.4 -13.31,27.51l-23.08 4.43zm385.16 -190.36c0.45,-0.44 1.34,0 1.78,0 8.87,24.41 23.52,69.22 27.95,82.98 0,0.89 -0.44,2.22 -1.33,2.22 -3.99,0.44 -15.08,0.44 -29.28,0.44 -12.43,0 -20.41,0 -25.3,-0.44 -0.88,0 -1.77,-1.77 -1.33,-3.55 7.1,-20.41 18.64,-56.8 27.51,-81.65zm417.48 -118.6l56.2 0c5.81,2.6 11.95,5.86 18.51,9.78 0.98,0.58 1.92,1.07 2.88,1.5 2.16,2.18 4.42,4.24 6.75,6.18l-104.12 0c6.62,-7.53 13.12,-13.34 19.78,-17.46zm283.26 0l269.64 0c0.37,0.41 0.77,0.81 1.17,1.19 7.58,7.27 17.94,9.36 27.7,5.5 1.68,-0.59 5.32,-1.27 8.22,-1.47 4.48,4.5 8.98,8.58 13.52,12.24l-370.86 0c4.53,-3.66 9.03,-7.73 13.51,-12.24 2.93,0.21 6.64,0.92 8.32,1.5 9.57,3.79 20.03,1.74 27.6,-5.53 0.41,-0.38 0.8,-0.78 1.18,-1.19zm496.7 0l56.2 0c6.65,4.12 13.15,9.94 19.77,17.46l-104.12 0c2.34,-1.94 4.59,-4 6.76,-6.18 0.96,-0.43 1.9,-0.92 2.88,-1.5 6.55,-3.92 12.7,-7.18 18.51,-9.78zm212.42 0l469.94 0c-4.3,4.42 -8.55,8.88 -12.71,13.37 -1.21,1.31 -2.26,2.67 -3.16,4.09l-446.89 0c-1.63,-6.13 -4.1,-11.94 -7.18,-17.46zm592.71 0l120.73 0c4.81,0 8.73,3.93 8.73,8.73l0 0c0,4.81 -3.92,8.73 -8.73,8.73l-125.95 0c3.46,-4.98 5.2,-11.22 5.22,-17.46z"/>
 </g>
</svg>
